<?xml version="1.0" encoding="UTF-8"?>
<svg id="Layer_1" xmlns="http://www.w3.org/2000/svg" version="1.1" viewBox="0 0 766.3 280.6">
  <!-- Generator: Adobe Illustrator 29.5.1, SVG Export Plug-In . SVG Version: 2.1.0 Build 141)  -->
  <defs>
    <style>
      .st0, .st1 {
        fill: #010101;
      }

      .st1 {
        fill-rule: evenodd;
      }
    </style>
  </defs>
  <g id="Layer_2">
    <g id="Layer_1-2">
      <path class="st1" d="M529.7,188.1c60.4-16.2,116.7-40.6,168.1-77.6,1.6,3.5,3,7.1,4.2,10.8,5.2,20.3,8.9,40.9,9.2,61.9.5,29.5-2.8,58.4-15.4,85.8-3.6,7.9-7.5,11.7-17.4,11.7-39.6-.1-73.3-14.7-103.1-39.5-18.1-15-33.5-32.9-45.7-53.1h0ZM713.9,67.7c-42.1,40.5-146.9,93.7-193.7,98.1,6.5-37.8,24.9-68.1,55.3-91.2l-.9-1.2c-6.2,4.9-12.6,9.6-18.3,15-21.9,20.6-35.3,46-41.8,75.4-.4,1.8-2.1,3.4-3.8,4.7-4.5-16.6-.8-31.7,6-46.2,8.8-18.7,22.9-33.2,38.1-46.8,4.6-4.2,9.5-8.2,14.6-11.8,3.3-2.3,3.9-4.7,2.9-8.5-3.5-13.7-4.9-27.4-2-41.5,1.2-5.6,2.4-10.8,9-12.7,7.5-2,14.7-1.4,21.2,2.8.9.6.8,4.3,0,5.9-5.7,10.2-9.4,21.4-10.9,33-.3,2.9,0,6,0,9.3,9.7-2,19-4.2,28.2-5.8,21.7-3.8,43.3-5.3,64.8,1.6,12.2,3.8,22.8,10.1,31.3,19.8h0ZM209,66.5h34.6c.1,1.9.4,3.6.4,5.2v109.2c0,2.6.6,5.2-3.4,6.1-20.4,4.4-40.8,7.9-61.8,5.2-24.2-3-38.6-17.4-40.5-42-1.5-19.1-.9-38.3-1.2-57.5-.1-8.6,0-17.2,0-26.2h35.4v6.2c0,21.5,0,43,.2,64.5.2,4.5.9,8.9,2.1,13.2,1.7,7.6,7.3,11.4,14.6,12.2,6.3.6,12.7.1,19.6.1v-96.4ZM35,190H.4c-.1-1.9-.3-3.6-.3-5.4,0-36.1.1-72.4,0-108.6,0-4.7,1.5-6.1,5.8-7,20.1-4.4,40.3-7.1,60.7-4.1,24.6,3.7,38,17.9,39.2,42.9,1.3,26.7.8,53.4,1,80.1,0,.7-.3,1.3-.5,1.9h-34.6v-5.7c0-20.8,0-41.6-.1-62.4-.2-5.2-.9-10.3-2.1-15.4-1.3-6.4-5.6-10.8-11.9-11.5-6.6-.6-13.2-.7-19.8-.2-1,0-2.5,3-2.5,4.6-.2,12.7,0,25.4,0,38.2v52.6ZM439.3,131.9c-6.3,7.6-12.7,15.1-19,22.8-1.4,1.6-2.4,3.4-4.3,6h59v29.1h-102.1c.1-10.4-1.8-20.4,5.6-29.6,15-18.7,29.2-38.1,43.8-57.2,1.5-2,3.1-3.9,5.4-6.7h-51.6v-29.8h97.9c0,7.8.5,15.2-.3,22.6-.3,2.7-3.5,5.2-5.5,7.6-9.6,11.7-19.3,23.3-29,35.1M311,30.1v36.1h42c0,9.5.1,18.5-.2,27.6,0,.7-2.9,2.1-4.5,2.1-10.3.2-20.4.1-30.7.1h-5.9c-.3.8-.5,1.6-.7,2.4.1,15.4-.2,30.9.4,46.3.5,13.8,6.8,19.3,20.7,18.5,6.9-.3,13.7-1.8,20.9-2.8,1.5,7.8,3.1,15.8,4.4,23.9.2,1.1-1.5,3.1-2.7,3.6-15.7,6.4-33.2,7.4-49.5,2.8-16.9-4.7-25.8-16.6-28.2-33.6-.8-6-1.3-12.1-1.3-18.2-.1-32.7,0-65.2-.1-97.9,0-4.4,1.4-5.7,5.6-6.2,9.5-1.2,19-3,29.6-4.7h0Z"/>
      <path class="st1" d="M719.2,94.1c21.3,63.6,21.8,123.9-21.3,178.9,2.2-4.4,4.5-8.7,6.6-13.1,12.8-26.1,17.4-53.9,17.4-82.6,0-20.2-2.2-40.3-6.8-60-.8-3.4-1.7-7-3.5-10-2.3-3.9-2-6.4,1.9-8.7,2-1.5,3.9-2.9,5.8-4.5h0Z"/>
      <path class="st0" d="M211.5,260.7h-3.5v-13.8c0-.8-.1-1.6-.3-2.4-.2-.6-.4-1.1-.8-1.6-.4-.4-.8-.7-1.4-.9-.6-.2-1.2-.3-1.8-.3-1.2,0-2.4.3-3.4.9-1.1.7-2,1.7-2.7,2.7v15.3h-3.5v-21.5h2.7l.6,3h.1c.4-.5.8-.9,1.3-1.4.5-.5,1-.9,1.6-1.2.6-.3,1.2-.6,1.9-.7.7-.2,1.5-.3,2.2-.3,1.4,0,2.8.3,4,1.1,1.1.8,1.9,1.9,2.4,3.1h.1c.9-1.3,2-2.3,3.2-3.1,1.3-.8,2.8-1.2,4.3-1.1.8,0,1.6.1,2.4.3.8.2,1.6.6,2.3,1.1.8.7,1.4,1.5,1.8,2.4.5,1.2.8,2.5.7,3.9v14.3h-3.6v-13.8c0-.8-.1-1.6-.3-2.4-.2-.6-.5-1.1-.8-1.6-.4-.4-.8-.7-1.4-.9-.6-.2-1.2-.3-1.8-.3-1.2,0-2.4.3-3.4.9-1.1.7-2,1.7-2.7,2.7v15.4c-.1,0-.1,0-.1,0ZM247.1,260.7v-3c-1.2,1.1-2.4,2-3.9,2.6-2.3.9-4.9,1-7.3.3-.9-.3-1.6-.7-2.3-1.4-.6-.6-1.1-1.3-1.4-2.1-.3-.8-.4-1.7-.4-2.5-.1-2.1.8-4.1,2.5-5.3,1.7-1.3,4.2-2,7.5-2h4.7v-2c0-1.2-.4-2.4-1.2-3.2-1.1-.9-2.5-1.3-3.9-1.2-1.3,0-2.5.1-3.8.4-1.3.3-2.6.7-3.9,1.2v-3.5c.5-.2,1.1-.3,1.7-.5.7-.2,1.3-.3,2-.4l2.1-.3c.7,0,1.5-.1,2.2-.1,1.2,0,2.5.1,3.7.4,1,.2,2,.7,2.8,1.4.7.6,1.3,1.4,1.8,2.3.4,1.1.6,2.2.6,3.4v15.6h-3.6ZM246.7,250.4h-5c-.8,0-1.7.1-2.5.3-.6.2-1.2.5-1.8.8-.4.3-.7.8-.9,1.2-.2.5-.3,1.1-.3,1.7,0,.4,0,.8.2,1.2.1.4.3.7.6,1,.3.3.7.6,1.1.7.6.2,1.2.3,1.8.3,1.1,0,2.1-.3,3.1-.8,1.3-.7,2.6-1.6,3.7-2.6v-4h0ZM278.4,260.7h-5.4l-10.6-12.1v12.1h-3.9v-31.9h3.9v19.6l10.2-10.4h5.2l-10.7,10.5,11.3,12.2h0ZM294.1,238h3.6v3.7c.7-.7,1.4-1.4,2.1-2,.5-.5,1.1-.9,1.8-1.2.5-.3,1.2-.5,1.8-.6.7-.1,1.3-.2,2-.2,2-.1,4,.6,5.3,2.1,1.1,1.4,1.8,3.5,1.8,6.3v14.8h-3.9v-14.4c.1-1.4-.2-2.7-1-3.9-.7-.9-1.8-1.3-2.9-1.3-.5,0-1,0-1.5.2-.5.2-1,.4-1.5.7-.6.4-1.1.9-1.6,1.5-.7.7-1.4,1.5-2,2.3v15.1h-3.9l-.2-23ZM335.9,241.2c.4.6.8,1.2,1,1.9.9,2.9,0,6-2.1,8.1-.8.7-1.8,1.3-2.8,1.6-1.1.4-2.3.6-3.6.6-.9,0-1.8,0-2.6-.3-.7-.1-1.4-.4-2-.7-.3.4-.5.7-.7,1.1-.2.4-.3.8-.3,1.3,0,.6.3,1.2.8,1.5.7.4,1.4.6,2.2.6l6,.2c1.1,0,2.1.2,3.1.4.9.3,1.7.6,2.5,1.2.7.4,1.2,1,1.6,1.8.4.8.6,1.6.6,2.5,0,1-.2,1.9-.6,2.8-.5,1-1.1,1.8-2,2.4-1.1.7-2.2,1.3-3.5,1.7-1.6.4-3.3.6-5,.6-1.6,0-3.2-.1-4.7-.4-1.1-.2-2.2-.6-3.1-1.3-1.5-.9-2.4-2.5-2.4-4.2,0-1,.2-2,.7-2.9.6-1,1.5-1.8,2.4-2.4-.4-.2-.7-.4-.9-.7-.3-.2-.6-.5-.7-.8-.2-.3-.3-.6-.4-1,0-.3-.1-.7-.1-1.1,0-1,.2-1.9.7-2.7.5-.8,1-1.6,1.7-2.3-.3-.3-.5-.6-.7-.9-.2-.3-.4-.6-.5-1-.2-.4-.3-.8-.3-1.2,0-.5-.1-1-.1-1.6,0-2.2.8-4.3,2.4-5.8.8-.7,1.8-1.3,2.8-1.6,1.2-.4,2.4-.6,3.7-.6.5,0,1.1,0,1.6.1.4.1,1,.2,1.4.3h8.3v3.2l-4.1-.2h0ZM322.2,264c0,1.1.7,2,1.7,2.3,1.5.6,3.1.8,4.7.7,1.1,0,2.1-.1,3.1-.3.7-.2,1.4-.5,2.1-.8.5-.3.9-.7,1.1-1.3.2-.5.3-1,.3-1.5,0-.8-.4-1.6-1.1-2-1.1-.5-2.3-.8-3.5-.7l-6-.2-1.3.9c-.3.3-.5.6-.7.9-.2.3-.3.6-.4.9,0,.3-.1.6-.1.9h0ZM323.4,245.5c0,.7.1,1.4.3,2,.4,1.2,1.3,2.1,2.5,2.5.6.2,1.3.3,2,.3.7,0,1.4-.1,2.1-.4.6-.2,1.1-.5,1.6-1,.4-.4.8-1,1-1.6.2-.6.3-1.2.3-1.8,0-.7-.1-1.4-.3-2-.2-.6-.5-1.1-1-1.6-.4-.4-1-.8-1.6-.9-.6-.2-1.3-.3-2-.3-.7,0-1.4.1-2.1.4-.6.2-1.1.6-1.6,1-.4.4-.8,1-.9,1.6-.2.6-.3,1.2-.3,1.8h0ZM371.7,254.5c0,.8-.1,1.5-.4,2.2-.3.6-.7,1.2-1.1,1.7-.5.5-1,.9-1.6,1.3-.6.3-1.3.6-2,.8-.7.2-1.5.4-2.2.5-.7.1-1.5.2-2.2.1-1.4,0-2.8-.1-4.2-.2-1.3-.1-2.5-.3-3.8-.6v-3.7c2.6.7,5.2,1.1,7.9,1.1,1.4,0,2.9-.2,4.2-.7.8-.4,1.4-1.3,1.4-2.2,0-.4,0-.7-.2-1.1-.2-.4-.4-.7-.7-.9-.5-.4-1.1-.7-1.8-.9-1.1-.4-2.1-.8-3.2-1.1-.9-.3-1.9-.6-2.8-1-.8-.3-1.5-.8-2.2-1.4-.6-.5-1.1-1.1-1.5-1.9-.4-.8-.6-1.6-.5-2.5,0-.7.2-1.4.4-2.1.3-.8.8-1.5,1.5-2.1.8-.7,1.8-1.3,2.8-1.6,1.5-.5,3-.7,4.5-.6,1,0,2,0,2.9.1,1.1.1,2.2.3,3.4.5v3.4c-1.2-.3-2.4-.5-3.6-.6-1-.1-2-.2-2.9-.2-.8,0-1.7,0-2.5.2-.6,0-1.1.3-1.6.6-1.2.7-1.5,2.3-.8,3.4.2.3.5.6.8.8.5.4,1.1.7,1.8.9,1,.4,2,.7,3,.9,1.2.3,2.3.7,3.4,1.2.8.3,1.6.8,2.2,1.5.5.5.9,1.1,1.3,1.8.4.7.5,1.4.5,2.2h0ZM398.4,248.2v1.4c0,.3,0,.7-.1,1h-15.9c0,2,.6,3.9,2,5.3,1.6,1.3,3.6,2,5.6,1.9.7,0,1.3,0,2-.1.6-.1,1.4-.1,2-.2l1.8-.3c.5,0,1.1-.2,1.6-.4v3.3c-1.1.3-2.4.5-3.7.7-1.4.2-2.8.3-4.2.3-1.7,0-3.4-.2-5-.8-1.3-.4-2.5-1.2-3.5-2.3-.9-1.1-1.6-2.3-2-3.7-.4-1.6-.6-3.3-.6-4.9,0-3,.9-5.9,2.7-8.3,1.9-2.3,4.7-3.6,7.6-3.6,1.4,0,2.8.2,4.2.7,1.2.4,2.2,1.2,3,2.1.8,1,1.5,2.1,1.9,3.4.3,1.5.5,3,.5,4.5h0ZM394.3,247.6c0-.9,0-1.8-.3-2.7-.2-.8-.6-1.6-1.1-2.2-.5-.6-1.2-1.1-1.9-1.5-.8-.3-1.7-.5-2.6-.5-.8,0-1.6.2-2.3.5-.7.3-1.3.8-1.8,1.4-.5.7-1,1.4-1.2,2.2-.3.9-.5,1.9-.6,2.8h11.9ZM404.7,238h3.6v3.7c.7-.7,1.4-1.4,2.1-2,.5-.5,1.1-.9,1.8-1.2.5-.3,1.2-.5,1.8-.6.7-.1,1.3-.2,2-.2,2-.1,4,.6,5.3,2.1,1.3,1.4,1.8,3.5,1.8,6.3v14.8h-3.9v-14.4c.1-1.4-.2-2.7-.9-3.9-.7-.9-1.8-1.3-2.9-1.3-.5,0-1,0-1.5.2-.5.2-1,.4-1.5.7-.6.4-1.1.9-1.6,1.5-.7.7-1.4,1.5-2,2.3v15.1h-3.9l-.2-23ZM448.1,254.4c0,.8-.1,1.5-.4,2.2-.3.6-.7,1.2-1.1,1.7-.5.5-1.1.9-1.7,1.3-.6.3-1.3.6-2,.8-.7.2-1.5.4-2.2.5-.7,0-1.5.1-2.2.1-1.5,0-2.8-.1-4.3-.2-1.3-.1-2.5-.3-3.8-.6v-3.7c2.6.7,5.2,1.1,7.9,1.1,1.4,0,2.9-.2,4.2-.7.8-.4,1.4-1.3,1.4-2.2,0-.4,0-.7-.2-1.1-.2-.4-.4-.7-.7-.9-.5-.4-1.1-.7-1.8-.9-1.1-.4-2.1-.8-3.2-1.1-.9-.3-1.9-.6-2.8-1-.8-.3-1.5-.8-2.2-1.4-1.3-1.1-2-2.7-2-4.4,0-.7.2-1.4.4-2.1.3-.8.8-1.5,1.5-2.1.8-.7,1.8-1.3,2.8-1.6,1.5-.5,3-.7,4.5-.6,1,0,2,0,2.9.1,1.1.1,2.2.3,3.4.5v3.4c-1.2-.3-2.4-.5-3.6-.6-.9-.1-1.9-.2-2.8-.2-.8,0-1.7,0-2.5.2-.6,0-1.1.3-1.6.6-.4.2-.7.5-.9.9-.2.3-.3.7-.3,1.1,0,.9.4,1.6,1.2,2.1.5.4,1.1.7,1.8.9,1,.4,2,.7,3,.9,1.2.3,2.3.7,3.4,1.2.8.3,1.6.8,2.2,1.5.5.5,1,1.1,1.3,1.8.5.6.7,1.4.7,2.2h0ZM474.7,248.2v1.4c0,.3,0,.7-.1,1h-15.9c0,2,.6,3.9,2,5.3,1.6,1.3,3.6,2,5.7,1.9.7,0,1.3,0,2-.1.6-.1,1.4-.1,2-.2l1.8-.3c.5,0,1.1-.2,1.6-.4v3.3c-1.2.3-2.4.5-3.7.7-1.4.2-2.8.3-4.2.3-1.7,0-3.4-.2-5-.8-1.3-.4-2.5-1.2-3.5-2.3-.9-1.1-1.6-2.3-2-3.7-.4-1.6-.6-3.3-.6-4.9,0-1.5.2-3.1.7-4.5.5-1.4,1.1-2.6,2-3.8.9-1.1,2-2,3.2-2.5,1.4-.7,2.9-1,4.4-.9,1.4,0,2.9.2,4.2.7,1.2.4,2.2,1.2,3,2.1.8,1,1.5,2.1,1.9,3.4.4,1.4.6,2.9.5,4.4h0ZM470.6,247.5c.1-.9,0-1.9-.3-2.7-.2-.8-.6-1.6-1.2-2.2-.5-.6-1.2-1.1-1.9-1.5-.8-.3-1.7-.5-2.6-.5-1.6,0-3.1.7-4.2,1.9-.5.7-1,1.4-1.2,2.2-.3.9-.5,1.9-.6,2.8h12Z"/>
      <path class="st1" d="M287.5,232.3c0,1.3-1.2,2.3-2.5,2.2-1.3,0-2.3-1.2-2.2-2.5,0-1.2,1.1-2.2,2.3-2.2,1.3,0,2.4,1.2,2.4,2.5Z"/>
      <path class="st0" d="M283.4,239.3h3.6v21.5h-3.6v-21.5ZM743.3,64.1c-12.7,0-23-10.3-23-23s10.3-23,23-23,23,10.3,23,23-10.3,23-23,23ZM743.3,23.1c-9.9,0-18,8.1-18,18s8.1,18,18,18,18-8.1,18-18c0-9.9-8.1-18-18-18h0Z"/>
      <path class="st0" d="M742,39.3c1,0,2-.2,2.8-.7.6-.6.9-1.5.8-2.4,0-.9-.2-1.7-.8-2.3-.8-.5-1.8-.8-2.8-.7h-2.6v6.1h2.6M739.4,43.5v9h-6.2v-23.8h9.4c3.1,0,5.4.5,6.9,1.6,1.5,1.2,2.4,3.1,2.2,5,0,1.4-.3,2.8-1.2,3.9-.9,1.1-2.1,1.9-3.4,2.2.9.2,1.7.7,2.3,1.3.8.9,1.5,1.9,2,3.1l3.3,6.8h-6.6l-2.9-5.9c-.4-.9-1-1.8-1.8-2.5-.7-.5-1.6-.7-2.4-.7h-1.7"/>
    </g>
  </g>
  <g id="Layer_21" data-name="Layer_2">
    <g id="Layer_1-21" data-name="Layer_1-2">
      <path class="st1" d="M529.7-275.7c60.4-16.2,116.7-40.6,168.1-77.6,1.6,3.5,3,7.1,4.2,10.8,5.2,20.3,8.9,40.9,9.2,61.9.5,29.5-2.8,58.4-15.4,85.8-3.6,7.9-7.5,11.7-17.4,11.7-39.6-.1-73.3-14.7-103.1-39.5-18.1-15-33.5-32.9-45.7-53.1h0ZM713.9-396.1c-42.1,40.5-146.9,93.7-193.7,98.1,6.5-37.8,24.9-68.1,55.3-91.2l-.9-1.2c-6.2,4.9-12.6,9.6-18.3,15-21.9,20.6-35.3,46-41.8,75.4-.4,1.8-2.1,3.4-3.8,4.7-4.5-16.6-.8-31.7,6-46.2,8.8-18.7,22.9-33.2,38.1-46.8,4.6-4.2,9.5-8.2,14.6-11.8,3.3-2.3,3.9-4.7,2.9-8.5-3.5-13.7-4.9-27.4-2-41.5,1.2-5.6,2.4-10.8,9-12.7,7.5-2,14.7-1.4,21.2,2.8.9.6.8,4.3,0,5.9-5.7,10.2-9.4,21.4-10.9,33-.3,2.9,0,6,0,9.3,9.7-2,19-4.2,28.2-5.8,21.7-3.8,43.3-5.3,64.8,1.6,12.2,3.8,22.8,10.1,31.3,19.8h0ZM209-397.3h34.6c.1,1.9.4,3.6.4,5.2v109.2c0,2.6.6,5.2-3.4,6.1-20.4,4.4-40.8,7.9-61.8,5.2-24.2-3-38.6-17.4-40.5-42-1.5-19.1-.9-38.3-1.2-57.5-.1-8.6,0-17.2,0-26.2h35.4v6.2c0,21.5,0,43,.2,64.5.2,4.5.9,8.9,2.1,13.2,1.7,7.6,7.3,11.4,14.6,12.2,6.3.6,12.7.1,19.6.1v-96.4ZM35-273.8H.4c-.1-1.9-.3-3.6-.3-5.4,0-36.1.1-72.4,0-108.6,0-4.7,1.5-6.1,5.8-7,20.1-4.4,40.3-7.1,60.7-4.1,24.6,3.7,38,17.9,39.2,42.9,1.3,26.7.8,53.4,1,80.1,0,.7-.3,1.3-.5,1.9h-34.6v-5.7c0-20.8,0-41.6-.1-62.4-.2-5.2-.9-10.3-2.1-15.4-1.3-6.4-5.6-10.8-11.9-11.5-6.6-.6-13.2-.7-19.8-.2-1,0-2.5,3-2.5,4.6-.2,12.7,0,25.4,0,38.2v52.6ZM439.3-332c-6.3,7.6-12.7,15.1-19,22.8-1.4,1.6-2.4,3.4-4.3,6h59v29.1h-102.1c.1-10.4-1.8-20.4,5.6-29.6,15-18.7,29.2-38.1,43.8-57.2,1.5-2,3.1-3.9,5.4-6.7h-51.6v-29.8h97.9c0,7.8.5,15.2-.3,22.6-.3,2.7-3.5,5.2-5.5,7.6-9.6,11.7-19.3,23.3-29,35.1M311-433.7v36.1h42c0,9.5.1,18.5-.2,27.6,0,.7-2.9,2.1-4.5,2.1-10.3.2-20.4.1-30.7.1h-5.9c-.3.8-.5,1.6-.7,2.4.1,15.4-.2,30.9.4,46.3.5,13.8,6.8,19.3,20.7,18.5,6.9-.3,13.7-1.8,20.9-2.8,1.5,7.8,3.1,15.8,4.4,23.9.2,1.1-1.5,3.1-2.7,3.6-15.7,6.4-33.2,7.4-49.5,2.8-16.9-4.7-25.8-16.6-28.2-33.6-.8-6-1.3-12.1-1.3-18.2-.1-32.7,0-65.2-.1-97.9,0-4.4,1.4-5.7,5.6-6.2,9.5-1.2,19-3,29.6-4.7h0Z"/>
      <path class="st1" d="M719.2-369.8c21.3,63.6,21.8,123.9-21.3,178.9,2.2-4.4,4.5-8.7,6.6-13.1,12.8-26.1,17.4-53.9,17.4-82.6,0-20.2-2.2-40.3-6.8-60-.8-3.4-1.7-7-3.5-10-2.3-3.9-2-6.4,1.9-8.7,2-1.5,3.9-2.9,5.8-4.5h0Z"/>
      <path class="st0" d="M211.5-203.1h-3.5v-13.8c0-.8-.1-1.6-.3-2.4-.2-.6-.4-1.1-.8-1.6-.4-.4-.8-.7-1.4-.9-.6-.2-1.2-.3-1.8-.3-1.2,0-2.4.3-3.4.9-1.1.7-2,1.7-2.7,2.7v15.3h-3.5v-21.5h2.7l.6,3h.1c.4-.5.8-.9,1.3-1.4.5-.5,1-.9,1.6-1.2.6-.3,1.2-.6,1.9-.7.7-.2,1.5-.3,2.2-.3,1.4,0,2.8.3,4,1.1,1.1.8,1.9,1.9,2.4,3.1h.1c.9-1.3,2-2.3,3.2-3.1,1.3-.8,2.8-1.2,4.3-1.1.8,0,1.6.1,2.4.3.8.2,1.6.6,2.3,1.1.8.7,1.4,1.5,1.8,2.4.5,1.2.8,2.5.7,3.9v14.3h-3.6v-13.8c0-.8-.1-1.6-.3-2.4-.2-.6-.5-1.1-.8-1.6-.4-.4-.8-.7-1.4-.9-.6-.2-1.2-.3-1.8-.3-1.2,0-2.4.3-3.4.9-1.1.7-2,1.7-2.7,2.7v15.4c-.1,0-.1,0-.1,0ZM247.1-203.1v-3c-1.2,1.1-2.4,2-3.9,2.6-2.3.9-4.9,1-7.3.3-.9-.3-1.6-.7-2.3-1.4-.6-.6-1.1-1.3-1.4-2.1-.3-.8-.4-1.7-.4-2.5-.1-2.1.8-4.1,2.5-5.3,1.7-1.3,4.2-2,7.5-2h4.7v-2c0-1.2-.4-2.4-1.2-3.2-1.1-.9-2.5-1.3-3.9-1.2-1.3,0-2.5.1-3.8.4-1.3.3-2.6.7-3.9,1.2v-3.5c.5-.2,1.1-.3,1.7-.5.7-.2,1.3-.3,2-.4l2.1-.3c.7,0,1.5-.1,2.2-.1,1.2,0,2.5.1,3.7.4,1,.2,2,.7,2.8,1.4.7.6,1.3,1.4,1.8,2.3.4,1.1.6,2.2.6,3.4v15.6h-3.6ZM246.7-213.4h-5c-.8,0-1.7.1-2.5.3-.6.2-1.2.5-1.8.8-.4.3-.7.8-.9,1.2-.2.5-.3,1.1-.3,1.7,0,.4,0,.8.2,1.2.1.4.3.7.6,1,.3.3.7.6,1.1.7.6.2,1.2.3,1.8.3,1.1,0,2.1-.3,3.1-.8,1.3-.7,2.6-1.6,3.7-2.6v-4h0ZM278.4-203.1h-5.4l-10.6-12.1v12.1h-3.9v-31.9h3.9v19.6l10.2-10.4h5.2l-10.7,10.5,11.3,12.2h0ZM294.1-225.8h3.6v3.7c.7-.7,1.4-1.4,2.1-2,.5-.5,1.1-.9,1.8-1.2.5-.3,1.2-.5,1.8-.6.7-.1,1.3-.2,2-.2,2-.1,4,.6,5.3,2.1,1.1,1.4,1.8,3.5,1.8,6.3v14.8h-3.9v-14.4c.1-1.4-.2-2.7-1-3.9-.7-.9-1.8-1.3-2.9-1.3-.5,0-1,0-1.5.2-.5.2-1,.4-1.5.7-.6.4-1.1.9-1.6,1.5-.7.7-1.4,1.5-2,2.3v15.1h-3.9l-.2-23ZM335.9-222.6c.4.6.8,1.2,1,1.9.9,2.9,0,6-2.1,8.1-.8.7-1.8,1.3-2.8,1.6-1.1.4-2.3.6-3.6.6-.9,0-1.8,0-2.6-.3-.7-.1-1.4-.4-2-.7-.3.4-.5.7-.7,1.1-.2.4-.3.8-.3,1.3,0,.6.3,1.2.8,1.5.7.4,1.4.6,2.2.6l6,.2c1.1,0,2.1.2,3.1.4.9.3,1.7.6,2.5,1.2.7.4,1.2,1,1.6,1.8.4.8.6,1.6.6,2.5,0,1-.2,1.9-.6,2.8-.5,1-1.1,1.8-2,2.4-1.1.7-2.2,1.3-3.5,1.7-1.6.4-3.3.6-5,.6-1.6,0-3.2-.1-4.7-.4-1.1-.2-2.2-.6-3.1-1.3-1.5-.9-2.4-2.5-2.4-4.2,0-1,.2-2,.7-2.9.6-1,1.5-1.8,2.4-2.4-.4-.2-.7-.4-.9-.7-.3-.2-.6-.5-.7-.8-.2-.3-.3-.6-.4-1,0-.3-.1-.7-.1-1.1,0-1,.2-1.9.7-2.7.5-.8,1-1.6,1.7-2.3-.3-.3-.5-.6-.7-.9-.2-.3-.4-.6-.5-1-.2-.4-.3-.8-.3-1.2,0-.5-.1-1-.1-1.6,0-2.2.8-4.3,2.4-5.8.8-.7,1.8-1.3,2.8-1.6,1.2-.4,2.4-.6,3.7-.6.5,0,1.1,0,1.6.1.4.1,1,.2,1.4.3h8.3v3.2l-4.1-.2h0ZM322.2-199.8c0,1.1.7,2,1.7,2.3,1.5.6,3.1.8,4.7.7,1.1,0,2.1-.1,3.1-.3.7-.2,1.4-.5,2.1-.8.5-.3.9-.7,1.1-1.3.2-.5.3-1,.3-1.5,0-.8-.4-1.6-1.1-2-1.1-.5-2.3-.8-3.5-.7l-6-.2-1.3.9c-.3.3-.5.6-.7.9-.2.3-.3.6-.4.9,0,.3-.1.6-.1.9h0ZM323.4-218.3c0,.7.1,1.4.3,2,.4,1.2,1.3,2.1,2.5,2.5.6.2,1.3.3,2,.3.7,0,1.4-.1,2.1-.4.6-.2,1.1-.5,1.6-1,.4-.4.8-1,1-1.6.2-.6.3-1.2.3-1.8,0-.7-.1-1.4-.3-2-.2-.6-.5-1.1-1-1.6-.4-.4-1-.8-1.6-.9-.6-.2-1.3-.3-2-.3-.7,0-1.4.1-2.1.4-.6.2-1.1.6-1.6,1-.4.4-.8,1-.9,1.6-.2.6-.3,1.2-.3,1.8h0ZM371.7-209.3c0,.8-.1,1.5-.4,2.2-.3.6-.7,1.2-1.1,1.7-.5.5-1,.9-1.6,1.3-.6.3-1.3.6-2,.8-.7.2-1.5.4-2.2.5-.7.1-1.5.2-2.2.1-1.4,0-2.8-.1-4.2-.2-1.3-.1-2.5-.3-3.8-.6v-3.7c2.6.7,5.2,1.1,7.9,1.1,1.4,0,2.9-.2,4.2-.7.8-.4,1.4-1.3,1.4-2.2,0-.4,0-.7-.2-1.1-.2-.4-.4-.7-.7-.9-.5-.4-1.1-.7-1.8-.9-1.1-.4-2.1-.8-3.2-1.1-.9-.3-1.9-.6-2.8-1-.8-.3-1.5-.8-2.2-1.4-.6-.5-1.1-1.1-1.5-1.9-.4-.8-.6-1.6-.5-2.5,0-.7.2-1.4.4-2.1.3-.8.8-1.5,1.5-2.1.8-.7,1.8-1.3,2.8-1.6,1.5-.5,3-.7,4.5-.6,1,0,2,0,2.9.1,1.1.1,2.2.3,3.4.5v3.4c-1.2-.3-2.4-.5-3.6-.6-1-.1-2-.2-2.9-.2-.8,0-1.7,0-2.5.2-.6,0-1.1.3-1.6.6-1.2.7-1.5,2.3-.8,3.4.2.3.5.6.8.8.5.4,1.1.7,1.8.9,1,.4,2,.7,3,.9,1.2.3,2.3.7,3.4,1.2.8.3,1.6.8,2.2,1.5.5.5.9,1.1,1.3,1.8.4.7.5,1.4.5,2.2h0ZM398.4-215.6v1.4c0,.3,0,.7-.1,1h-15.9c0,2,.6,3.9,2,5.3,1.6,1.3,3.6,2,5.6,1.9.7,0,1.3,0,2-.1.6-.1,1.4-.1,2-.2l1.8-.3c.5,0,1.1-.2,1.6-.4v3.3c-1.1.3-2.4.5-3.7.7-1.4.2-2.8.3-4.2.3-1.7,0-3.4-.2-5-.8-1.3-.4-2.5-1.2-3.5-2.3-.9-1.1-1.6-2.3-2-3.7-.4-1.6-.6-3.3-.6-4.9,0-3,.9-5.9,2.7-8.3,1.9-2.3,4.7-3.6,7.6-3.6,1.4,0,2.8.2,4.2.7,1.2.4,2.2,1.2,3,2.1.8,1,1.5,2.1,1.9,3.4.3,1.5.5,3,.5,4.5h0ZM394.3-216.3c0-.9,0-1.8-.3-2.7-.2-.8-.6-1.6-1.1-2.2-.5-.6-1.2-1.1-1.9-1.5-.8-.3-1.7-.5-2.6-.5-.8,0-1.6.2-2.3.5-.7.3-1.3.8-1.8,1.4-.5.7-1,1.4-1.2,2.2-.3.9-.5,1.9-.6,2.8h11.9ZM404.7-225.8h3.6v3.7c.7-.7,1.4-1.4,2.1-2,.5-.5,1.1-.9,1.8-1.2.5-.3,1.2-.5,1.8-.6.7-.1,1.3-.2,2-.2,2-.1,4,.6,5.3,2.1,1.3,1.4,1.8,3.5,1.8,6.3v14.8h-3.9v-14.4c.1-1.4-.2-2.7-.9-3.9-.7-.9-1.8-1.3-2.9-1.3-.5,0-1,0-1.5.2-.5.2-1,.4-1.5.7-.6.4-1.1.9-1.6,1.5-.7.7-1.4,1.5-2,2.3v15.1h-3.9l-.2-23ZM448.1-209.4c0,.8-.1,1.5-.4,2.2-.3.6-.7,1.2-1.1,1.7-.5.5-1.1.9-1.7,1.3-.6.3-1.3.6-2,.8-.7.2-1.5.4-2.2.5-.7,0-1.5.1-2.2.1-1.5,0-2.8-.1-4.3-.2-1.3-.1-2.5-.3-3.8-.6v-3.7c2.6.7,5.2,1.1,7.9,1.1,1.4,0,2.9-.2,4.2-.7.8-.4,1.4-1.3,1.4-2.2,0-.4,0-.7-.2-1.1-.2-.4-.4-.7-.7-.9-.5-.4-1.1-.7-1.8-.9-1.1-.4-2.1-.8-3.2-1.1-.9-.3-1.9-.6-2.8-1-.8-.3-1.5-.8-2.2-1.4-1.3-1.1-2-2.7-2-4.4,0-.7.2-1.4.4-2.1.3-.8.8-1.5,1.5-2.1.8-.7,1.8-1.3,2.8-1.6,1.5-.5,3-.7,4.5-.6,1,0,2,0,2.9.1,1.1.1,2.2.3,3.4.5v3.4c-1.2-.3-2.4-.5-3.6-.6-.9-.1-1.9-.2-2.8-.2-.8,0-1.7,0-2.5.2-.6,0-1.1.3-1.6.6-.4.2-.7.5-.9.9-.2.3-.3.7-.3,1.1,0,.9.4,1.6,1.2,2.1.5.4,1.1.7,1.8.9,1,.4,2,.7,3,.9,1.2.3,2.3.7,3.4,1.2.8.3,1.6.8,2.2,1.5.5.5,1,1.1,1.3,1.8.5.6.7,1.4.7,2.2h0ZM474.7-215.7v1.4c0,.3,0,.7-.1,1h-15.9c0,2,.6,3.9,2,5.3,1.6,1.3,3.6,2,5.7,1.9.7,0,1.3,0,2-.1.6-.1,1.4-.1,2-.2l1.8-.3c.5,0,1.1-.2,1.6-.4v3.3c-1.2.3-2.4.5-3.7.7-1.4.2-2.8.3-4.2.3-1.7,0-3.4-.2-5-.8-1.3-.4-2.5-1.2-3.5-2.3-.9-1.1-1.6-2.3-2-3.7-.4-1.6-.6-3.3-.6-4.9,0-1.5.2-3.1.7-4.5.5-1.4,1.1-2.6,2-3.8.9-1.1,2-2,3.2-2.5,1.4-.7,2.9-1,4.4-.9,1.4,0,2.9.2,4.2.7,1.2.4,2.2,1.2,3,2.1.8,1,1.5,2.1,1.9,3.4.4,1.4.6,2.9.5,4.4h0ZM470.6-216.3c.1-.9,0-1.9-.3-2.7-.2-.8-.6-1.6-1.2-2.2-.5-.6-1.2-1.1-1.9-1.5-.8-.3-1.7-.5-2.6-.5-1.6,0-3.1.7-4.2,1.9-.5.7-1,1.4-1.2,2.2-.3.9-.5,1.9-.6,2.8h12Z"/>
      <path class="st1" d="M287.5-231.6c0,1.3-1.2,2.3-2.5,2.2-1.3,0-2.3-1.2-2.2-2.5,0-1.2,1.1-2.2,2.3-2.2,1.3,0,2.4,1.2,2.4,2.5Z"/>
      <path class="st0" d="M283.4-224.5h3.6v21.5h-3.6v-21.5ZM743.3-399.7c-12.7,0-23-10.3-23-23s10.3-23,23-23,23,10.3,23,23-10.3,23-23,23ZM743.3-440.7c-9.9,0-18,8.1-18,18s8.1,18,18,18,18-8.1,18-18c0-9.9-8.1-18-18-18h0Z"/>
      <path class="st0" d="M742-424.5c1,0,2-.2,2.8-.7.6-.6.9-1.5.8-2.4,0-.9-.2-1.7-.8-2.3-.8-.5-1.8-.8-2.8-.7h-2.6v6.1h2.6M739.4-420.3v9h-6.2v-23.8h9.4c3.1,0,5.4.5,6.9,1.6,1.5,1.2,2.4,3.1,2.2,5,0,1.4-.3,2.8-1.2,3.9-.9,1.1-2.1,1.9-3.4,2.2.9.2,1.7.7,2.3,1.3.8.9,1.5,1.9,2,3.1l3.3,6.8h-6.6l-2.9-5.9c-.4-.9-1-1.8-1.8-2.5-.7-.5-1.6-.7-2.4-.7h-1.7"/>
    </g>
  </g>
</svg>